<?xml version="1.0" encoding="UTF-8" standalone="no"?>
<!-- Created with Inkscape (http://www.inkscape.org/) -->

<svg
   version="1.1"
   id="svg1"
   width="752.57635"
   height="715.79016"
   viewBox="0 0 752.57635 715.79016"
   sodipodi:docname="_f774dc0c-1a5f-422a-8f7b-49a1ead50445.svg"
   inkscape:version="1.3.2 (091e20e, 2023-11-25, custom)"
   xmlns:inkscape="http://www.inkscape.org/namespaces/inkscape"
   xmlns:sodipodi="http://sodipodi.sourceforge.net/DTD/sodipodi-0.dtd"
   xmlns="http://www.w3.org/2000/svg"
   xmlns:svg="http://www.w3.org/2000/svg">
  <defs
     id="defs1" />
  <sodipodi:namedview
     id="namedview1"
     pagecolor="#ffffff"
     bordercolor="#000000"
     borderopacity="0.25"
     inkscape:showpageshadow="2"
     inkscape:pageopacity="0.0"
     inkscape:pagecheckerboard="0"
     inkscape:deskcolor="#d1d1d1"
     inkscape:zoom="0.79394531"
     inkscape:cx="374.71095"
     inkscape:cy="377.23001"
     inkscape:window-width="2560"
     inkscape:window-height="1009"
     inkscape:window-x="-8"
     inkscape:window-y="735"
     inkscape:window-maximized="1"
     inkscape:current-layer="g1" />
  <g
     inkscape:groupmode="layer"
     inkscape:label="Image"
     id="g1"
     transform="translate(-137.42364,-134.97757)">
    <path
       style="fill:#000000"
       d="m 459.65038,849.68372 c -8.03804,-2.47161 -11.86274,-8.67021 -13.07092,-21.18372 -1.20207,-12.45032 -6.58444,-63.38132 -7.6544,-72.43035 -3.17832,-26.88001 -1.40464,-30.88544 19.07494,-43.07619 5.775,-3.43765 11.2875,-6.93723 12.25,-7.77685 l 1.75,-1.52659 v -20.27358 c 0,-16.81051 -0.25977,-20.53335 -1.52074,-21.79432 l -1.52074,-1.52074 -9.22926,3.32167 c -27.78214,9.99896 -28.37623,10.07153 -49.82485,6.08646 -7.37242,-1.36977 -14.19191,-2.49477 -15.15441,-2.5 L 393,667 v 12.5 12.5 h 30 c 31.40025,0 32.84817,0.21772 25.42666,3.82337 -14.68753,7.13575 -25.62876,19.00693 -28.75673,31.20087 L 418.2653,732.5 H 397.88265 377.5 l -4.12898,-2.68615 c -11.99513,-7.80355 -12.46882,-29.77173 -0.7722,-35.81237 4.32201,-2.23207 4.36933,-2.41638 4.38587,-17.08394 L 377,663.33508 l -3.75,-2.41754 c -10.53677,-6.79282 -10.37435,-24.51652 0.28229,-30.80409 L 377,628.06745 V 540.53373 453 h -6.53155 c -15.68643,0 -34.1904,10.52741 -47.21845,26.86385 -6.21114,7.78842 -6.08358,6.3435 -2.79934,31.70885 1.34786,10.41001 4.9553,40.7523 8.01653,67.4273 3.06124,26.675 7.35628,63.125 9.54455,81 7.17282,58.59152 7.96034,65.24586 10.53294,89 2.82493,26.08397 3.3894,28.64943 7.06353,32.10295 l 2.55017,2.39705 31.92081,0.28985 C 407.63564,783.94926 422,784.30804 422,784.58713 c 0,0.64874 3.86187,33.84724 4.43936,38.16287 l 0.4349,3.25 -43.68713,-0.0119 c -65.84023,-0.0179 -69.68451,-2.1226 -74.24583,-40.64904 -1.09651,-9.2615 -3.77757,-31.46409 -5.95792,-49.33909 -2.18035,-17.875 -4.19273,-34.525 -4.47196,-37 -4.64064,-41.13287 -16.07403,-129.70298 -17.16879,-133 -0.27394,-0.825 -2.72128,4.35 -5.43853,11.5 -2.71726,7.15 -6.24797,16.375 -7.84602,20.5 -1.59806,4.125 -11.24333,29.1 -21.43394,55.5 -24.51079,63.49815 -66.09679,169.64613 -67.46313,172.19915 -7.81673,14.60569 -31.2419,13.88667 -39.06736,-1.19915 -4.99389,-9.62716 -4.93023,-9.86768 17.60086,-66.5 11.05025,-27.775 25.06852,-63.1 31.15172,-78.5 6.08319,-15.4 19.33139,-48.925 29.44043,-74.5 10.10904,-25.575 21.89038,-55.5 26.18075,-66.5 26.62182,-68.25519 29.8769,-74.62863 47.44227,-92.89189 42.42161,-44.10705 122.80874,-54.67396 122.54152,-16.10811 -0.0728,10.50861 -6.76894,18.9879 -17.19746,21.77711 L 393,452.41481 v 88.18576 88.18576 l 17.25,4.11601 c 21.62937,5.16097 17.06628,5.89212 42.45243,-6.80212 27.69272,-13.84762 24.27793,-13.08801 58.86607,-13.09464 34.56851,-0.007 32.30221,-0.48137 59.4315,12.44949 10.725,5.11195 21.18853,9.89159 23.25229,10.62141 l 3.75229,1.32695 17.49771,-4.40401 L 633,628.59541 v -88.0903 -88.0903 l -4.49908,-1.20332 c -27.18271,-7.27027 -18.49928,-43.629 10.75573,-45.03571 42.46397,-2.04185 85.72601,20.07888 109.87423,56.18085 9.602,14.35516 8.05846,10.69027 62.18291,147.64337 12.90795,32.66146 30.5032,77.14011 43.71254,110.5 C 889.96728,808.74254 890,808.8299 890,813.87631 c 0,20.34086 -26.3507,30.56837 -39.25273,15.23518 -2.58393,-3.07082 -4.46851,-7.36044 -14.10768,-32.11149 -3.10582,-7.975 -11.08076,-28.45 -17.72208,-45.5 -6.64131,-17.05 -18.1808,-46.75 -25.64329,-66 -7.46249,-19.25 -15.92363,-41.075 -18.80253,-48.5 -2.8789,-7.425 -8.62347,-22.275 -12.76571,-33 -11.77379,-30.48442 -15.44647,-39.22891 -16.0595,-38.23701 -0.50985,0.82495 -12.44758,94.93535 -17.66196,139.23701 -11.33087,96.26775 -12.27459,101.70503 -18.97733,109.33903 -9.58885,10.9211 -13.61755,11.63479 -65.75719,11.6491 L 600,826 l -0.002,-3.25 c -0.002,-3.90326 2.85901,-33.30962 3.55162,-36.5 L 604.0381,784 h 30.83173 c 44.21029,0 39.01613,5.75279 45.14481,-50 1.1185,-10.175 3.37804,-29.525 5.02122,-43 1.64317,-13.475 3.42709,-28.325 3.96427,-33 0.53718,-4.675 2.55654,-21.55 4.48746,-37.5 3.02013,-24.94708 10.23842,-85.19293 13.47908,-112.5 0.5548,-4.675 1.29224,-11.26693 1.63874,-14.64874 l 0.63001,-6.14874 -3.06198,-4.45043 C 694.85662,466.30365 672.0527,453.09875 654.83592,453.02445 L 649.17183,453 l 0.0584,87.37286 0.0584,87.37287 4.78226,4.11934 c 9.6854,8.3428 8.35109,23.76279 -2.58585,29.8834 l -1.90477,1.06597 -0.16248,13.9391 -0.16247,13.93911 4.62237,3.40367 c 14.26577,10.50456 10.22164,33.17062 -6.75999,37.88765 -1.9897,0.55268 -11.5732,1.00739 -21.29667,1.01045 L 608.14192,733 606.47418,727.2632 C 602.78323,714.56677 587.20576,698.37396 574.93667,694.4799 569.16166,692.64698 576.62898,692 603.55902,692 H 633 v -13.10841 -13.10841 l -2.25,0.5583 c -28.89931,7.17078 -37.06427,7.12862 -58.66649,-0.30299 l -15.41649,-5.30359 -1.33351,1.82368 C 554.33139,663.92906 554,669.17104 554,683.65217 v 19.26992 l 2.24842,2.09472 c 1.23663,1.1521 5.84913,4.15643 10.25,6.67628 22.51668,12.89263 24.2009,16.41557 21.0168,43.96179 -0.81663,7.06482 -2.60183,23.87012 -3.96711,37.34512 -4.97417,49.09394 -5.16095,49.94674 -11.83845,54.05148 -8.22717,5.05734 -16.09563,4.49589 -22.17374,-1.58222 -6.70107,-6.70108 -6.70889,-7.86621 -0.47231,-70.37865 C 550.12863,764.41545 551,754.17795 551,752.34061 V 749 h -38.11522 -38.11523 l 0.60524,5.25 c 0.33288,2.8875 1.52729,16.05 2.65425,29.25 1.12697,13.2 2.47777,27.825 3.00179,32.5 2.92651,26.10864 -5.06591,38.70026 -21.38045,33.68372 z M 501.03656,814.25 c -0.6612,-6.4625 -1.61153,-14.45 -2.11182,-17.75 -0.5003,-3.3 -0.91303,-7.4625 -0.91719,-9.25 L 498,784 l 13.75,0.0153 c 18.22659,0.0203 16.84592,-2.01096 14.34386,21.10301 -1.15393,10.65992 -2.09711,19.71918 -2.09596,20.13168 0.001,0.4125 -4.89418,0.75 -10.87852,0.75 h -10.88062 z m 5.60126,-215.36555 c -12.99116,-1.86274 -23.51256,-9.79151 -29.71822,-22.39523 L 473.5,569.544 v -10.07036 -10.07036 l 3.77234,-7.63632 c 14.36073,-29.07029 56.24963,-29.65534 71.52333,-0.99894 15.52733,29.13226 -8.9517,62.87767 -42.15785,58.11643 z M 435.21553,389.98135 C 408.6427,383.01929 391.3199,361.75308 387.78209,331.75 c -0.68572,-5.81532 -1.59957,-9.75 -2.2645,-9.75 -6.95561,0 -29.0818,-20.04154 -34.82367,-31.54271 -28.81904,-57.72558 36.62986,-107.26587 120.71871,-91.37571 l 4.91264,0.92834 11.08736,-11.65209 c 13.55466,-14.24505 13.28652,-12.66467 3.34851,-19.73597 -24.53421,-17.45708 -46.82851,-20.72923 -68.03125,-9.98499 l -4.85553,2.46049 -5.81312,-6.03379 -5.81311,-6.03379 5.12593,-3.3713 c 27.22475,-17.90554 63.32076,-13.06067 94.96343,12.74617 l 5.83748,4.76088 4.66252,-3.89454 c 47.625,-39.78057 114.8486,-17.59417 120.7336,39.84679 l 0.67298,6.5687 3.25336,1.17643 c 5.9515,2.15209 15.91868,9.30803 23.00332,16.51523 29.75,30.26468 19.60202,76.9664 -20.99467,96.61892 l -4.35834,2.10983 -0.6504,6.69656 c -5.7193,58.88567 -66.00119,81.18855 -116.99734,43.28627 -2.75,-2.04391 -5.59253,-4.07036 -6.31674,-4.50322 -0.84921,-0.50758 -2.97959,0.60199 -6,3.12501 -22.12869,18.4846 -49.62455,25.64773 -73.96773,19.26984 z m 34.81899,-17.80288 c 7.77539,-2.03023 20.59082,-9.10404 26.59259,-14.67847 l 4.30665,-4 -12.48084,-11.863 -12.48084,-11.863 -8.07341,1.18049 c -15.19815,2.22226 -50.72259,1.30194 -60.14867,-1.55826 -3.6853,-1.11824 -1.70662,9.73903 3.83619,21.04968 9.36724,19.11476 33.75107,28.18129 58.44833,21.73256 z M 591,369.71858 c 14.37131,-5.26046 24.86646,-17.76862 28.11804,-33.51118 1.59167,-7.70613 2.07933,-7.40966 -9.15694,-5.56691 -10.54796,1.72988 -50.75172,1.4215 -56.583,-0.43401 l -3.1219,-0.99339 -11.8781,11.9527 -11.8781,11.9527 3,2.49168 c 11.15635,9.266 39.99005,21.55761 31.99636,13.63983 -15.60971,-15.46148 4.83442,-39.62277 21.59415,-25.52039 8.77864,7.38674 7.76388,20.38333 -2.11431,27.07908 l -3.4762,2.35628 4,-0.71659 c 2.2,-0.39412 6.475,-1.62253 9.5,-2.7298 z m -70.89048,-34.81982 c 2.96477,-3.35569 5.54048,-6.50569 5.72381,-7 0.18651,-0.50287 -5.42973,-0.89876 -12.75,-0.89876 -15.20764,0 -14.88101,-0.36761 -6.86222,7.72309 7.60024,7.66841 7.27221,7.66426 13.88841,0.17567 z m -60.75589,-20.62486 2.85362,-0.54667 -18.31091,-18.33101 -18.31092,-18.331 -1.91132,1.71739 c -4.00111,3.59514 -10.70648,14.14713 -13.63081,21.45029 -4.48208,11.19348 -4.4272,11.36005 4.20671,12.7664 3.9875,0.64951 7.925,1.32238 8.75,1.49527 2.58108,0.54089 33.3533,0.3541 36.35363,-0.22067 z m 153.94343,-1.3271 5.79706,-1.24181 -0.67133,-3.10249 c -1.83993,-8.5032 -7.23782,-18.37063 -15.01064,-27.4397 l -3.71727,-4.33719 -17.84744,17.82677 C 572.03135,304.45711 564,312.79548 564,313.18208 c 0,2.00605 39.71892,1.81648 49.29706,-0.23528 z M 564.66553,287.02869 587.41689,263.79516 563.95844,240.98792 540.5,218.18068 534,218.84034 c -7.64279,0.77564 -36.04824,0.87847 -44.10246,0.15966 l -5.60245,-0.5 -23.2975,22.84213 -23.2975,22.84213 23.14192,23.15787 23.14191,23.15787 28.96512,-0.11889 28.96512,-0.11889 z m -59.6456,-6.78024 c -9.15114,-4.5977 -11.53479,-17.23902 -4.85245,-25.73423 5.81696,-7.39508 19.95265,-7.26213 25.85633,0.24318 10.97139,13.94786 -5.11676,33.47301 -21.00388,25.49105 z M 391.9983,298.25 c 3.06107,-9.51411 7.51205,-17.51879 14.74455,-26.51669 l 6.24285,-7.76668 -5.87825,-7.00095 c -6.72213,-8.00601 -11.96601,-17.45416 -15.11231,-27.22858 l -2.17691,-6.76291 -3.98543,2.23994 c -21.15376,11.88907 -29.82316,39.82308 -18.39188,59.26122 3.61903,6.15393 19.16909,20.52465 22.20901,20.52465 0.0971,0 1.15392,-3.0375 2.34837,-6.75 z m 250.05592,2.90284 c 27.99271,-17.92703 28.84409,-52.77251 1.77625,-72.69873 -7.54572,-5.55484 -8.31882,-5.54312 -9.75179,0.14772 -1.9646,7.80211 -8.57196,19.5268 -15.62192,27.72089 l -6.73043,7.82272 3.96579,4.17728 c 8.29845,8.74099 15.10509,19.95648 18.31448,30.17728 2.09628,6.67591 1.87803,6.60396 8.04762,2.65284 z M 604.70069,245.75 c 7.95711,-9.8481 16.13185,-28.22038 13.00929,-29.23769 -8.25295,-2.68876 -35.61034,-3.85584 -49.13268,-2.09603 l -5.92269,0.77079 18.42269,18.37382 c 10.13249,10.1056 18.45663,18.38851 18.49809,18.40646 0.0415,0.018 2.34785,-2.77985 5.1253,-6.21735 z M 443.96371,233.53633 c 9.59326,-9.60502 17.1385,-17.76745 16.76721,-18.13874 C 458.11614,212.78281 407,214.44445 407,217.14423 407,224.07684 421.93073,251 425.77534,251 c 0.41035,0 8.59512,-7.85865 18.18837,-17.46367 z M 520,195.08482 l -7.5,-6.87469 -6,5.62965 c -9.18705,8.61999 -9.56321,8.163 6.70031,8.13997 L 527.5,201.95951 Z m 53.25103,1.86162 c 15.12658,-1.17004 39.26508,-0.22056 44.39005,1.74607 1.45968,0.56013 1.58065,0.0956 0.9698,-3.72448 -1.91282,-11.9621 -13.78539,-27.22803 -26.25086,-33.75373 -7.52607,-3.93993 -7.56918,-3.94085 -5.66379,-0.12141 5.60592,11.23735 -7.09695,25.25379 -19.81568,21.86477 -10.24446,-2.72974 -14.19804,-12.88774 -9.41418,-24.18801 l 0.73253,-1.73036 -5.60312,1.92776 c -7.81653,2.68928 -18.76201,8.59164 -23.28632,12.55716 l -3.80946,3.33897 12,12.12767 12,12.12767 4,-0.47686 c 2.2,-0.26228 11.08796,-1.02512 19.75103,-1.69522 z M 393.1228,187.91483 c -13.74821,-2.90769 -16.73417,-23.36996 -4.45993,-30.56315 11.82408,-6.92937 26.40664,2.16592 25.1099,15.6613 -0.95163,9.90382 -10.77244,16.99091 -20.64997,14.90185 z"
       id="path1" />
  </g>
</svg>
